<?xml version="1.0" standalone="no"?>
<!DOCTYPE svg PUBLIC "-//W3C//DTD SVG 20010904//EN"
 "http://www.w3.org/TR/2001/REC-SVG-20010904/DTD/svg10.dtd">
<svg version="1.0" xmlns="http://www.w3.org/2000/svg"
 width="600.000000pt" height="600.000000pt" viewBox="0 0 600.000000 600.000000"
 preserveAspectRatio="xMidYMid meet">
<metadata>
Created by potrace 1.14, written by Peter Selinger 2001-2017
</metadata>
<g transform="translate(0.000000,600.000000) scale(0.100000,-0.100000)"
fill="#000000" stroke="none">
<path d="M590 4985 c0 -3 33 -53 73 -112 167 -246 352 -520 480 -713 75 -113
147 -217 161 -232 l25 -28 1109 0 c1071 0 1111 -1 1165 -19 176 -61 304 -236
309 -420 l1 -46 15 35 c20 48 11 160 -17 225 -52 118 -167 223 -288 264 -62
21 -73 21 -1162 21 -1032 0 -1100 1 -1119 18 -11 9 -91 123 -178 252 -476 711
-475 710 -526 736 -27 13 -48 22 -48 19z"/>
<path d="M5000 3493 c0 -80 -39 -288 -82 -433 -44 -151 -150 -364 -240 -485
-109 -145 -275 -301 -417 -390 -58 -36 -187 -99 -233 -114 -48 -16 -88 -48
-88 -71 0 -23 17 -35 33 -22 7 5 38 19 69 31 275 101 556 331 723 591 124 194
188 364 230 614 26 146 34 346 15 346 -6 0 -10 -29 -10 -67z"/>
<path d="M1963 2957 c3 -9 59 -94 123 -189 65 -95 168 -247 229 -338 62 -91
164 -241 227 -335 63 -93 177 -262 253 -375 77 -113 183 -270 238 -350 54 -80
162 -242 241 -361 103 -154 151 -218 167 -222 38 -10 1307 -8 1313 2 8 12 -15
30 -56 42 -21 7 -255 13 -633 15 -330 3 -605 7 -612 9 -6 2 -93 126 -193 275
-99 149 -384 571 -632 938 -248 367 -481 711 -517 764 -61 89 -79 107 -145
137 -5 2 -6 -3 -3 -12z"/>
</g>
</svg>
